<svg width="239" height="103" viewBox="0 0 239 103" fill="none" xmlns="http://www.w3.org/2000/svg">
<mask id="path-1-outside-1_99_92" maskUnits="userSpaceOnUse" x="0" y="0" width="239" height="103" fill="black">
<rect fill="white" width="239" height="103"/>
<path d="M45.0798 28.6127C45.0798 29.69 44.8792 30.6182 44.4782 31.397C44.09 32.1758 43.566 32.8378 42.9062 33.383C42.2464 33.9282 41.483 34.376 40.6162 34.7265C39.7623 35.064 38.8695 35.3301 37.938 35.5248C37.0065 35.7195 36.0685 35.8493 35.124 35.9142C34.1925 35.9791 33.3191 36.0116 32.504 36.0116C31.7019 36.0116 30.8674 35.9791 30.0005 35.9142C29.1466 35.8623 28.2927 35.7649 27.4388 35.6222C26.5849 35.4794 25.7439 35.2912 24.9159 35.0575C24.0879 34.8109 23.3051 34.5058 22.5677 34.1424L22.5288 9.06391C23.2534 8.76536 24.0232 8.49926 24.8383 8.26561C25.6534 8.01897 26.4814 7.81778 27.3224 7.66201C28.1763 7.49326 29.0237 7.36995 29.8647 7.29206C30.7057 7.2012 31.5208 7.15577 32.31 7.15577C33.2286 7.15577 34.1536 7.21418 35.0852 7.331C36.0296 7.44783 36.9353 7.64254 37.8022 7.91513C38.669 8.18772 39.4776 8.54469 40.228 8.98603C40.9784 9.41439 41.6318 9.94659 42.1881 10.5826C42.7574 11.2187 43.1973 11.9586 43.5078 12.8023C43.8313 13.6461 43.993 14.6196 43.993 15.7229C43.993 16.4499 43.8895 17.1313 43.6825 17.7674C43.4755 18.4034 43.1779 18.9746 42.7898 19.4808C42.4016 19.9871 41.9294 20.4219 41.373 20.7854C40.8167 21.1358 40.1892 21.3955 39.4906 21.5642C40.3315 21.7849 41.0949 22.1094 41.7806 22.5377C42.4792 22.9661 43.0679 23.4853 43.5466 24.0954C44.0383 24.7055 44.4135 25.3935 44.6722 26.1593C44.9439 26.9252 45.0798 27.743 45.0798 28.6127ZM35.221 17.5143C35.221 17.1378 35.1434 16.8198 34.9881 16.5602C34.8329 16.2876 34.6388 16.0669 34.4059 15.8982C34.186 15.7294 33.9402 15.6061 33.6685 15.5282C33.4097 15.4504 33.1768 15.4114 32.9698 15.4114C32.7111 15.4114 32.4588 15.4504 32.2129 15.5282C31.9671 15.6061 31.7278 15.697 31.4949 15.8008L31.3784 20.1234C31.676 20.1234 32.0447 20.0974 32.4846 20.0455C32.9245 19.9936 33.345 19.8832 33.7461 19.7145C34.1601 19.5327 34.5094 19.2731 34.7941 18.9356C35.0787 18.5852 35.221 18.1114 35.221 17.5143ZM32.4652 23.8618C32.09 23.8618 31.7278 23.9007 31.3784 23.9786L31.3008 28.4179C31.4949 28.4569 31.6825 28.4958 31.8636 28.5348C32.0577 28.5607 32.2453 28.5737 32.4264 28.5737C32.6981 28.5737 32.9957 28.5478 33.3191 28.4958C33.6426 28.4309 33.9466 28.3141 34.2313 28.1454C34.5159 27.9636 34.7488 27.7235 34.9299 27.4249C35.124 27.1264 35.221 26.7305 35.221 26.2372C35.221 25.7439 35.124 25.3415 34.9299 25.03C34.7488 24.7185 34.5224 24.4783 34.2507 24.3096C33.979 24.1279 33.6814 24.011 33.358 23.9591C33.0345 23.8942 32.7369 23.8618 32.4652 23.8618Z"/>
<path d="M67.3978 19.8118C67.3978 20.9411 67.3202 22.0704 67.165 23.1998C64.9526 23.3425 62.7531 23.5762 60.5666 23.9007C58.3801 24.2122 56.1935 24.5238 54.007 24.8353C54.3434 25.7699 54.8674 26.5163 55.579 27.0745C56.3035 27.6326 57.1639 27.9117 58.1601 27.9117C58.6776 27.9117 59.2404 27.8143 59.8485 27.6196C60.4695 27.4249 61.0841 27.1848 61.6922 26.8992C62.3003 26.6007 62.8825 26.2826 63.4388 25.9451C63.9951 25.6077 64.4739 25.3026 64.8749 25.03L63.9434 33.8698C63.4388 34.2592 62.8889 34.5902 62.2938 34.8628C61.7116 35.1354 61.1035 35.3561 60.4695 35.5248C59.8356 35.6936 59.1951 35.8169 58.5482 35.8948C57.9013 35.9726 57.2674 36.0116 56.6464 36.0116C55.3655 36.0116 54.1946 35.8363 53.1337 35.4859C52.0728 35.1354 51.1089 34.6486 50.2421 34.0256C49.3881 33.3895 48.6377 32.6431 47.9908 31.7864C47.3439 30.9297 46.807 29.9951 46.3801 28.9826C45.9531 27.9701 45.6296 26.8992 45.4097 25.7699C45.1898 24.6406 45.0798 23.4983 45.0798 22.343C45.0798 21.1358 45.1898 19.9287 45.4097 18.7215C45.6296 17.5143 45.9596 16.3525 46.3995 15.2362C46.8523 14.1198 47.4151 13.0879 48.0879 12.1403C48.7736 11.1797 49.5693 10.3425 50.4749 9.62857C51.3806 8.91463 52.4027 8.35647 53.5412 7.95407C54.6927 7.55167 55.9606 7.35048 57.345 7.35048C58.4965 7.35048 59.5445 7.51273 60.4889 7.83725C61.4464 8.14878 62.2938 8.59012 63.0313 9.16127C63.7817 9.71943 64.4286 10.3879 64.972 11.1668C65.5283 11.9456 65.9811 12.8023 66.3305 13.7369C66.6927 14.6585 66.958 15.6386 67.1261 16.677C67.3073 17.7025 67.3978 18.7474 67.3978 19.8118ZM59.635 18.7993C59.635 18.4359 59.5962 18.0659 59.5186 17.6895C59.441 17.3001 59.3116 16.9496 59.1305 16.6381C58.9623 16.3265 58.7358 16.0734 58.4512 15.8787C58.1666 15.671 57.8108 15.5672 57.3838 15.5672C56.8663 15.5672 56.407 15.71 56.0059 15.9955C55.6178 16.2681 55.2814 16.6186 54.9968 17.047C54.7121 17.4623 54.4792 17.9167 54.2981 18.4099C54.117 18.9032 53.9811 19.3575 53.8906 19.7729L59.635 19.2277V18.7993Z"/>
<path d="M91.4237 16.7744C91.4237 17.7869 91.3332 18.7085 91.152 19.5392C90.9838 20.357 90.7121 21.1099 90.3369 21.7979C89.9617 22.4858 89.4765 23.1219 88.8814 23.706C88.2863 24.2901 87.5682 24.8483 86.7272 25.3805L91.3461 33.6361L82.6129 35.3496L79.6243 27.055L77.2178 27.1329L76.8685 35.2327H68.5234C68.5881 32.2732 68.6464 29.3266 68.6981 26.393C68.7628 23.4594 68.834 20.5128 68.9116 17.5532C68.9375 16.0604 68.9633 14.5807 68.9892 13.1138C69.0151 11.647 69.0668 10.1673 69.1445 8.67449C70.0501 8.337 70.9429 8.05792 71.8226 7.83725C72.7024 7.61658 73.5822 7.44783 74.462 7.331C75.3547 7.2012 76.2539 7.11683 77.1596 7.07788C78.0782 7.02596 79.0162 7 79.9736 7C81.4485 7 82.8717 7.20769 84.2431 7.62307C85.6275 8.02547 86.8501 8.63555 87.911 9.45333C88.972 10.2711 89.8194 11.2901 90.4534 12.5103C91.1003 13.7304 91.4237 15.1518 91.4237 16.7744ZM82.7294 17.3974C82.7294 16.8523 82.6518 16.3525 82.4965 15.8982C82.3542 15.4439 82.1342 15.0544 81.8367 14.7299C81.552 14.3924 81.1898 14.1328 80.7499 13.9511C80.3229 13.7564 79.8183 13.659 79.2361 13.659C78.9774 13.659 78.7251 13.6785 78.4792 13.7174C78.2334 13.7434 77.9941 13.7888 77.7612 13.8537L77.4507 21.0969H77.9164C78.4728 21.0969 79.0356 21.0255 79.6049 20.8827C80.1871 20.7399 80.7046 20.5193 81.1574 20.2207C81.6232 19.9222 81.9984 19.5392 82.283 19.0719C82.5806 18.6046 82.7294 18.0465 82.7294 17.3974Z"/>
<path d="M117.254 33.8698L107.629 35.1159L106.464 30.7155H102.039L101.069 35.1159L91.1714 34.1424L98.8954 8.20719L109.686 7.66201L117.254 33.8698ZM105.765 24.7574L104.291 17.9816L102.854 24.7574H105.765Z"/>
<path d="M136.021 7.85672C135.943 9.07689 135.872 10.2841 135.808 11.4783C135.743 12.6725 135.659 13.8797 135.555 15.0999L127.327 15.5282V17.9816H134.468L134.08 24.0175L127.288 24.2122L127.327 34.9602L117.507 35.1549L118.128 7.85672H136.021Z"/>
<path d="M159.096 33.8698L149.47 35.1159L148.306 30.7155H143.881L142.911 35.1159L133.013 34.1424L140.737 8.20719L151.527 7.66201L159.096 33.8698ZM147.607 24.7574L146.132 17.9816L144.696 24.7574H147.607Z"/>
<path d="M182.249 16.7744C182.249 17.7869 182.158 18.7085 181.977 19.5392C181.809 20.357 181.537 21.1099 181.162 21.7979C180.787 22.4858 180.301 23.1219 179.706 23.706C179.111 24.2901 178.393 24.8483 177.552 25.3805L182.171 33.6361L173.438 35.3496L170.449 27.055L168.043 27.1329L167.693 35.2327H159.348C159.413 32.2732 159.471 29.3266 159.523 26.393C159.588 23.4594 159.659 20.5128 159.736 17.5532C159.762 16.0604 159.788 14.5807 159.814 13.1138C159.84 11.647 159.892 10.1673 159.969 8.67449C160.875 8.337 161.768 8.05792 162.647 7.83725C163.527 7.61658 164.407 7.44783 165.287 7.331C166.18 7.2012 167.079 7.11683 167.984 7.07788C168.903 7.02596 169.841 7 170.798 7C172.273 7 173.696 7.20769 175.068 7.62307C176.452 8.02547 177.675 8.63555 178.736 9.45333C179.797 10.2711 180.644 11.2901 181.278 12.5103C181.925 13.7304 182.249 15.1518 182.249 16.7744ZM173.554 17.3974C173.554 16.8523 173.477 16.3525 173.321 15.8982C173.179 15.4439 172.959 15.0544 172.661 14.7299C172.377 14.3924 172.015 14.1328 171.575 13.9511C171.148 13.7564 170.643 13.659 170.061 13.659C169.802 13.659 169.55 13.6785 169.304 13.7174C169.058 13.7434 168.819 13.7888 168.586 13.8537L168.275 21.0969H168.741C169.298 21.0969 169.86 21.0255 170.43 20.8827C171.012 20.7399 171.529 20.5193 171.982 20.2207C172.448 19.9222 172.823 19.5392 173.108 19.0719C173.405 18.6046 173.554 18.0465 173.554 17.3974Z"/>
<path d="M217.53 22.343C217.53 24.1993 217.472 26.049 217.356 27.8922C217.239 29.7355 217.103 31.5852 216.948 33.4414L206.973 33.9087C207.271 31.6501 207.536 29.3915 207.769 27.1329C208.015 24.8613 208.137 22.5897 208.137 20.3181C208.137 20.1753 208.131 19.9287 208.118 19.5782C208.105 19.2147 208.079 18.8058 208.04 18.3515C208.015 17.8972 207.969 17.4299 207.905 16.9496C207.853 16.4563 207.775 16.0085 207.672 15.6061C207.581 15.1907 207.465 14.8532 207.322 14.5936C207.18 14.334 207.012 14.2042 206.818 14.2042C206.365 14.2042 206.009 14.3795 205.75 14.7299C205.492 15.0674 205.298 15.4763 205.168 15.9566C205.052 16.4369 204.981 16.9301 204.955 17.4364C204.929 17.9296 204.916 18.332 204.916 18.6436C204.916 19.1888 204.929 19.7339 204.955 20.2791C204.981 20.8243 204.994 21.3825 204.994 21.9536C204.994 23.9656 204.942 25.9711 204.838 27.9701C204.748 29.9691 204.631 31.9746 204.489 33.9866L195.29 34.3371C195.588 32.0785 195.846 29.8263 196.066 27.5807C196.299 25.3221 196.416 23.057 196.416 20.7854C196.416 20.6426 196.409 20.383 196.396 20.0065C196.383 19.6301 196.357 19.2082 196.319 18.7409C196.293 18.2736 196.247 17.7869 196.183 17.2806C196.118 16.7744 196.034 16.3136 195.93 15.8982C195.84 15.4698 195.723 15.1193 195.581 14.8468C195.439 14.5742 195.264 14.4379 195.057 14.4379C194.734 14.4379 194.462 14.5677 194.242 14.8273C194.022 15.0739 193.841 15.3984 193.699 15.8008C193.569 16.2032 193.466 16.6511 193.388 17.1443C193.323 17.6246 193.272 18.0984 193.233 18.5657C193.207 19.033 193.188 19.4678 193.175 19.8702C193.175 20.2597 193.168 20.5517 193.155 20.7464L192.728 34.9602H182.947C183.154 32.7664 183.361 30.5662 183.568 28.3595C183.788 26.1528 183.976 23.9526 184.131 21.7589C184.299 19.5522 184.435 17.3455 184.539 15.1388C184.642 12.9321 184.694 10.7254 184.694 8.51873L193.932 8.12931L193.893 10.3879C194.177 10.0245 194.501 9.66102 194.863 9.29756C195.225 8.92112 195.607 8.59012 196.008 8.30455C196.422 8.00599 196.856 7.76585 197.308 7.58413C197.774 7.4024 198.253 7.31153 198.744 7.31153C199.378 7.31153 199.948 7.36346 200.452 7.4673C200.957 7.55816 201.41 7.72042 201.811 7.95407C202.225 8.18772 202.587 8.51224 202.898 8.92762C203.208 9.33001 203.48 9.84275 203.713 10.4658C204.127 10.0115 204.541 9.58962 204.955 9.20021C205.382 8.81079 205.828 8.47979 206.294 8.20719C206.76 7.92162 207.264 7.70095 207.808 7.54518C208.351 7.38942 208.953 7.31153 209.612 7.31153C210.867 7.31153 211.935 7.55816 212.815 8.05143C213.694 8.53171 214.425 9.17425 215.008 9.97904C215.603 10.7838 216.062 11.7055 216.385 12.7439C216.722 13.7823 216.974 14.8597 217.142 15.9761C217.311 17.0924 217.414 18.2022 217.453 19.3056C217.505 20.4089 217.53 21.4214 217.53 22.343Z"/>
<path d="M57.5391 85.9401C56.2722 87.5356 54.7089 88.9283 52.8491 90.1182C50.9892 91.3081 48.9946 92.2951 46.8652 93.0794C44.7359 93.8636 42.5526 94.4586 40.3154 94.8642C38.0782 95.2428 35.9488 95.4321 33.9272 95.4321C30.0189 95.4321 26.4205 94.7696 23.1321 93.4445C19.8437 92.1194 17 90.2804 14.6011 87.9277C12.2291 85.5479 10.3693 82.722 9.02156 79.4498C7.67385 76.1776 7 72.6079 7 68.7408C7 65.7931 7.33693 62.9266 8.01078 60.1412C8.68464 57.3558 9.64151 54.7461 10.8814 52.3123C12.1482 49.8784 13.6846 47.6474 15.4906 45.6192C17.2965 43.5909 19.345 41.8467 21.6361 40.3864C23.9272 38.926 26.434 37.8038 29.1563 37.0195C31.9057 36.2082 34.8167 35.8026 37.8895 35.8026C39.0485 35.8026 40.2884 35.8567 41.6092 35.9648C42.9299 36.046 44.2372 36.2082 45.531 36.4516C46.8518 36.668 48.1321 36.979 49.372 37.3846C50.6119 37.7902 51.7439 38.2905 52.7682 38.8855L51.6361 54.381C50.1267 53.8131 48.5633 53.4345 46.9461 53.2452C45.3558 53.0289 43.7925 52.9207 42.2561 52.9207C40.0997 52.9207 38.0782 53.2182 36.1914 53.8131C34.3315 54.381 32.7008 55.2329 31.2992 56.3687C29.9245 57.5045 28.8329 58.9242 28.0243 60.6279C27.2156 62.3316 26.8113 64.3058 26.8113 66.5503C26.8113 67.9566 27 69.3222 27.3774 70.6473C27.7547 71.9454 28.3208 73.1082 29.0755 74.1358C29.8571 75.1364 30.814 75.9477 31.9461 76.5697C33.1051 77.1917 34.4394 77.5027 35.9488 77.5027C36.973 77.5027 38.0243 77.3675 39.1024 77.097C40.2075 76.8266 41.1509 76.3669 41.9326 75.7178L42.0943 72.5538L32.3908 72.3916L32.876 60.2223C36.8922 60.0871 40.9084 59.9789 44.9245 59.8978C48.9407 59.7896 52.9838 59.6544 57.0539 59.4921L57.5391 85.9401Z"/>
<path d="M111.636 91.5379L91.5822 94.134L89.1563 84.9665H79.938L77.9164 94.134L57.2965 92.1058L73.3881 38.0742L95.8679 36.9384L111.636 91.5379ZM87.7008 72.5538L84.628 58.4375L81.6361 72.5538H87.7008Z"/>
<path d="M183.159 67.5239C183.159 71.391 183.038 75.2446 182.795 79.0847C182.553 82.9248 182.27 86.7784 181.946 90.6455L161.164 91.6191C161.784 86.9136 162.337 82.2081 162.822 77.5027C163.334 72.7702 163.59 68.0377 163.59 63.3052C163.59 63.0077 163.577 62.4939 163.55 61.7637C163.523 61.0065 163.469 60.1547 163.388 59.2082C163.334 58.2617 163.24 57.2881 163.105 56.2876C162.997 55.2599 162.836 54.327 162.62 53.4886C162.431 52.6233 162.189 51.9201 161.892 51.3793C161.596 50.8384 161.245 50.568 160.841 50.568C159.898 50.568 159.156 50.9331 158.617 51.6632C158.078 52.3663 157.674 53.2182 157.404 54.2188C157.162 55.2194 157.013 56.247 156.96 57.3017C156.906 58.3293 156.879 59.1676 156.879 59.8167C156.879 60.9525 156.906 62.0883 156.96 63.2241C157.013 64.3599 157.04 65.5227 157.04 66.7126C157.04 70.9042 156.933 75.0823 156.717 79.2469C156.528 83.4115 156.286 87.5897 155.989 91.7813L136.825 92.5115C137.445 87.806 137.984 83.1141 138.442 78.4357C138.927 73.7302 139.17 69.0112 139.17 64.2787C139.17 63.9813 139.156 63.4404 139.129 62.6562C139.102 61.8719 139.049 60.993 138.968 60.0195C138.914 59.0459 138.819 58.0318 138.685 56.9771C138.55 55.9225 138.375 54.9625 138.159 54.0971C137.97 53.2047 137.728 52.4745 137.431 51.9066C137.135 51.3387 136.771 51.0548 136.34 51.0548C135.666 51.0548 135.1 51.3252 134.642 51.8661C134.183 52.3799 133.806 53.0559 133.509 53.8943C133.24 54.7326 133.024 55.6656 132.863 56.6932C132.728 57.6938 132.62 58.6809 132.539 59.6544C132.485 60.6279 132.445 61.5339 132.418 62.3722C132.418 63.1835 132.404 63.792 132.377 64.1976L131.488 93.8095H111.111C111.542 89.2393 111.973 84.6555 112.404 80.0582C112.863 75.4609 113.253 70.8772 113.577 66.3069C113.927 61.7097 114.21 57.1124 114.426 52.5151C114.642 47.9178 114.749 43.3205 114.749 38.7232L133.995 37.9119L133.914 42.6174C134.507 41.8602 135.181 41.103 135.935 40.3458C136.69 39.5616 137.485 38.872 138.321 38.277C139.183 37.655 140.086 37.1547 141.03 36.7761C142 36.3975 142.997 36.2082 144.022 36.2082C145.342 36.2082 146.528 36.3164 147.58 36.5327C148.631 36.722 149.574 37.0601 150.41 37.5469C151.272 38.0336 152.027 38.7097 152.674 39.5751C153.321 40.4134 153.887 41.4816 154.372 42.7797C155.234 41.8332 156.097 40.9543 156.96 40.143C157.849 39.3317 158.779 38.6421 159.749 38.0742C160.72 37.4792 161.771 37.0195 162.903 36.695C164.035 36.3705 165.288 36.2082 166.663 36.2082C169.278 36.2082 171.501 36.722 173.334 37.7497C175.167 38.7503 176.69 40.0889 177.903 41.7655C179.143 43.4422 180.1 45.3622 180.774 47.5257C181.474 49.6891 182 51.9337 182.35 54.2593C182.701 56.585 182.916 58.8972 182.997 61.1958C183.105 63.4945 183.159 65.6038 183.159 67.5239Z"/>
<path d="M232 62.2505C232 64.6032 231.838 66.956 231.515 69.3087C226.906 69.6062 222.323 70.0929 217.768 70.769C213.213 71.418 208.658 72.0671 204.102 72.7161C204.803 74.6632 205.895 76.2181 207.377 77.381C208.887 78.5438 210.679 79.1253 212.755 79.1253C213.833 79.1253 215.005 78.9224 216.272 78.5168C217.566 78.1111 218.846 77.6109 220.113 77.0159C221.38 76.3939 222.593 75.7314 223.752 75.0283C224.911 74.3251 225.908 73.6896 226.744 73.1217L224.803 91.5379C223.752 92.3492 222.606 93.0388 221.367 93.6067C220.154 94.1746 218.887 94.6343 217.566 94.9859C216.245 95.3375 214.911 95.5944 213.563 95.7566C212.216 95.9189 210.895 96 209.601 96C206.933 96 204.493 95.6349 202.283 94.9048C200.073 94.1746 198.065 93.1605 196.259 91.8624C194.48 90.5373 192.916 88.9824 191.569 87.1975C190.221 85.4127 189.102 83.4656 188.213 81.3563C187.323 79.2469 186.65 77.0159 186.191 74.6632C185.733 72.3105 185.504 69.9307 185.504 67.5239C185.504 65.0089 185.733 62.4939 186.191 59.9789C186.65 57.4639 187.337 55.0436 188.253 52.7179C189.197 50.3922 190.369 48.2423 191.771 46.2682C193.199 44.267 194.857 42.5227 196.744 41.0354C198.631 39.548 200.76 38.3852 203.132 37.5469C205.531 36.7085 208.173 36.2894 211.057 36.2894C213.456 36.2894 215.639 36.6274 217.606 37.3035C219.601 37.9525 221.367 38.872 222.903 40.0618C224.466 41.2247 225.814 42.6174 226.946 44.24C228.105 45.8625 229.049 47.6474 229.776 49.5945C230.531 51.5145 231.084 53.5562 231.434 55.7197C231.811 57.856 232 60.033 232 62.2505ZM215.827 60.1412C215.827 59.384 215.747 58.6132 215.585 57.829C215.423 57.0177 215.154 56.2876 214.776 55.6385C214.426 54.9895 213.954 54.4622 213.361 54.0565C212.768 53.6238 212.027 53.4075 211.137 53.4075C210.059 53.4075 209.102 53.705 208.267 54.2999C207.458 54.8678 206.757 55.598 206.164 56.4904C205.571 57.3558 205.086 58.3023 204.709 59.3299C204.332 60.3575 204.049 61.304 203.86 62.1694L215.827 61.0336V60.1412Z"/>
</mask>
<path d="M45.0798 28.6127C45.0798 29.69 44.8792 30.6182 44.4782 31.397C44.09 32.1758 43.566 32.8378 42.9062 33.383C42.2464 33.9282 41.483 34.376 40.6162 34.7265C39.7623 35.064 38.8695 35.3301 37.938 35.5248C37.0065 35.7195 36.0685 35.8493 35.124 35.9142C34.1925 35.9791 33.3191 36.0116 32.504 36.0116C31.7019 36.0116 30.8674 35.9791 30.0005 35.9142C29.1466 35.8623 28.2927 35.7649 27.4388 35.6222C26.5849 35.4794 25.7439 35.2912 24.9159 35.0575C24.0879 34.8109 23.3051 34.5058 22.5677 34.1424L22.5288 9.06391C23.2534 8.76536 24.0232 8.49926 24.8383 8.26561C25.6534 8.01897 26.4814 7.81778 27.3224 7.66201C28.1763 7.49326 29.0237 7.36995 29.8647 7.29206C30.7057 7.2012 31.5208 7.15577 32.31 7.15577C33.2286 7.15577 34.1536 7.21418 35.0852 7.331C36.0296 7.44783 36.9353 7.64254 37.8022 7.91513C38.669 8.18772 39.4776 8.54469 40.228 8.98603C40.9784 9.41439 41.6318 9.94659 42.1881 10.5826C42.7574 11.2187 43.1973 11.9586 43.5078 12.8023C43.8313 13.6461 43.993 14.6196 43.993 15.7229C43.993 16.4499 43.8895 17.1313 43.6825 17.7674C43.4755 18.4034 43.1779 18.9746 42.7898 19.4808C42.4016 19.9871 41.9294 20.4219 41.373 20.7854C40.8167 21.1358 40.1892 21.3955 39.4906 21.5642C40.3315 21.7849 41.0949 22.1094 41.7806 22.5377C42.4792 22.9661 43.0679 23.4853 43.5466 24.0954C44.0383 24.7055 44.4135 25.3935 44.6722 26.1593C44.9439 26.9252 45.0798 27.743 45.0798 28.6127ZM35.221 17.5143C35.221 17.1378 35.1434 16.8198 34.9881 16.5602C34.8329 16.2876 34.6388 16.0669 34.4059 15.8982C34.186 15.7294 33.9402 15.6061 33.6685 15.5282C33.4097 15.4504 33.1768 15.4114 32.9698 15.4114C32.7111 15.4114 32.4588 15.4504 32.2129 15.5282C31.9671 15.6061 31.7278 15.697 31.4949 15.8008L31.3784 20.1234C31.676 20.1234 32.0447 20.0974 32.4846 20.0455C32.9245 19.9936 33.345 19.8832 33.7461 19.7145C34.1601 19.5327 34.5094 19.2731 34.7941 18.9356C35.0787 18.5852 35.221 18.1114 35.221 17.5143ZM32.4652 23.8618C32.09 23.8618 31.7278 23.9007 31.3784 23.9786L31.3008 28.4179C31.4949 28.4569 31.6825 28.4958 31.8636 28.5348C32.0577 28.5607 32.2453 28.5737 32.4264 28.5737C32.6981 28.5737 32.9957 28.5478 33.3191 28.4958C33.6426 28.4309 33.9466 28.3141 34.2313 28.1454C34.5159 27.9636 34.7488 27.7235 34.9299 27.4249C35.124 27.1264 35.221 26.7305 35.221 26.2372C35.221 25.7439 35.124 25.3415 34.9299 25.03C34.7488 24.7185 34.5224 24.4783 34.2507 24.3096C33.979 24.1279 33.6814 24.011 33.358 23.9591C33.0345 23.8942 32.7369 23.8618 32.4652 23.8618Z" fill="white"/>
<path d="M67.3978 19.8118C67.3978 20.9411 67.3202 22.0704 67.165 23.1998C64.9526 23.3425 62.7531 23.5762 60.5666 23.9007C58.3801 24.2122 56.1935 24.5238 54.007 24.8353C54.3434 25.7699 54.8674 26.5163 55.579 27.0745C56.3035 27.6326 57.1639 27.9117 58.1601 27.9117C58.6776 27.9117 59.2404 27.8143 59.8485 27.6196C60.4695 27.4249 61.0841 27.1848 61.6922 26.8992C62.3003 26.6007 62.8825 26.2826 63.4388 25.9451C63.9951 25.6077 64.4739 25.3026 64.8749 25.03L63.9434 33.8698C63.4388 34.2592 62.8889 34.5902 62.2938 34.8628C61.7116 35.1354 61.1035 35.3561 60.4695 35.5248C59.8356 35.6936 59.1951 35.8169 58.5482 35.8948C57.9013 35.9726 57.2674 36.0116 56.6464 36.0116C55.3655 36.0116 54.1946 35.8363 53.1337 35.4859C52.0728 35.1354 51.1089 34.6486 50.2421 34.0256C49.3881 33.3895 48.6377 32.6431 47.9908 31.7864C47.3439 30.9297 46.807 29.9951 46.3801 28.9826C45.9531 27.9701 45.6296 26.8992 45.4097 25.7699C45.1898 24.6406 45.0798 23.4983 45.0798 22.343C45.0798 21.1358 45.1898 19.9287 45.4097 18.7215C45.6296 17.5143 45.9596 16.3525 46.3995 15.2362C46.8523 14.1198 47.4151 13.0879 48.0879 12.1403C48.7736 11.1797 49.5693 10.3425 50.4749 9.62857C51.3806 8.91463 52.4027 8.35647 53.5412 7.95407C54.6927 7.55167 55.9606 7.35048 57.345 7.35048C58.4965 7.35048 59.5445 7.51273 60.4889 7.83725C61.4464 8.14878 62.2938 8.59012 63.0313 9.16127C63.7817 9.71943 64.4286 10.3879 64.972 11.1668C65.5283 11.9456 65.9811 12.8023 66.3305 13.7369C66.6927 14.6585 66.958 15.6386 67.1261 16.677C67.3073 17.7025 67.3978 18.7474 67.3978 19.8118ZM59.635 18.7993C59.635 18.4359 59.5962 18.0659 59.5186 17.6895C59.441 17.3001 59.3116 16.9496 59.1305 16.6381C58.9623 16.3265 58.7358 16.0734 58.4512 15.8787C58.1666 15.671 57.8108 15.5672 57.3838 15.5672C56.8663 15.5672 56.407 15.71 56.0059 15.9955C55.6178 16.2681 55.2814 16.6186 54.9968 17.047C54.7121 17.4623 54.4792 17.9167 54.2981 18.4099C54.117 18.9032 53.9811 19.3575 53.8906 19.7729L59.635 19.2277V18.7993Z" fill="white"/>
<path d="M91.4237 16.7744C91.4237 17.7869 91.3332 18.7085 91.152 19.5392C90.9838 20.357 90.7121 21.1099 90.3369 21.7979C89.9617 22.4858 89.4765 23.1219 88.8814 23.706C88.2863 24.2901 87.5682 24.8483 86.7272 25.3805L91.3461 33.6361L82.6129 35.3496L79.6243 27.055L77.2178 27.1329L76.8685 35.2327H68.5234C68.5881 32.2732 68.6464 29.3266 68.6981 26.393C68.7628 23.4594 68.834 20.5128 68.9116 17.5532C68.9375 16.0604 68.9633 14.5807 68.9892 13.1138C69.0151 11.647 69.0668 10.1673 69.1445 8.67449C70.0501 8.337 70.9429 8.05792 71.8226 7.83725C72.7024 7.61658 73.5822 7.44783 74.462 7.331C75.3547 7.2012 76.2539 7.11683 77.1596 7.07788C78.0782 7.02596 79.0162 7 79.9736 7C81.4485 7 82.8717 7.20769 84.2431 7.62307C85.6275 8.02547 86.8501 8.63555 87.911 9.45333C88.972 10.2711 89.8194 11.2901 90.4534 12.5103C91.1003 13.7304 91.4237 15.1518 91.4237 16.7744ZM82.7294 17.3974C82.7294 16.8523 82.6518 16.3525 82.4965 15.8982C82.3542 15.4439 82.1342 15.0544 81.8367 14.7299C81.552 14.3924 81.1898 14.1328 80.7499 13.9511C80.3229 13.7564 79.8183 13.659 79.2361 13.659C78.9774 13.659 78.7251 13.6785 78.4792 13.7174C78.2334 13.7434 77.9941 13.7888 77.7612 13.8537L77.4507 21.0969H77.9164C78.4728 21.0969 79.0356 21.0255 79.6049 20.8827C80.1871 20.7399 80.7046 20.5193 81.1574 20.2207C81.6232 19.9222 81.9984 19.5392 82.283 19.0719C82.5806 18.6046 82.7294 18.0465 82.7294 17.3974Z" fill="white"/>
<path d="M117.254 33.8698L107.629 35.1159L106.464 30.7155H102.039L101.069 35.1159L91.1714 34.1424L98.8954 8.20719L109.686 7.66201L117.254 33.8698ZM105.765 24.7574L104.291 17.9816L102.854 24.7574H105.765Z" fill="white"/>
<path d="M136.021 7.85672C135.943 9.07689 135.872 10.2841 135.808 11.4783C135.743 12.6725 135.659 13.8797 135.555 15.0999L127.327 15.5282V17.9816H134.468L134.08 24.0175L127.288 24.2122L127.327 34.9602L117.507 35.1549L118.128 7.85672H136.021Z" fill="white"/>
<path d="M159.096 33.8698L149.47 35.1159L148.306 30.7155H143.881L142.911 35.1159L133.013 34.1424L140.737 8.20719L151.527 7.66201L159.096 33.8698ZM147.607 24.7574L146.132 17.9816L144.696 24.7574H147.607Z" fill="white"/>
<path d="M182.249 16.7744C182.249 17.7869 182.158 18.7085 181.977 19.5392C181.809 20.357 181.537 21.1099 181.162 21.7979C180.787 22.4858 180.301 23.1219 179.706 23.706C179.111 24.2901 178.393 24.8483 177.552 25.3805L182.171 33.6361L173.438 35.3496L170.449 27.055L168.043 27.1329L167.693 35.2327H159.348C159.413 32.2732 159.471 29.3266 159.523 26.393C159.588 23.4594 159.659 20.5128 159.736 17.5532C159.762 16.0604 159.788 14.5807 159.814 13.1138C159.84 11.647 159.892 10.1673 159.969 8.67449C160.875 8.337 161.768 8.05792 162.647 7.83725C163.527 7.61658 164.407 7.44783 165.287 7.331C166.18 7.2012 167.079 7.11683 167.984 7.07788C168.903 7.02596 169.841 7 170.798 7C172.273 7 173.696 7.20769 175.068 7.62307C176.452 8.02547 177.675 8.63555 178.736 9.45333C179.797 10.2711 180.644 11.2901 181.278 12.5103C181.925 13.7304 182.249 15.1518 182.249 16.7744ZM173.554 17.3974C173.554 16.8523 173.477 16.3525 173.321 15.8982C173.179 15.4439 172.959 15.0544 172.661 14.7299C172.377 14.3924 172.015 14.1328 171.575 13.9511C171.148 13.7564 170.643 13.659 170.061 13.659C169.802 13.659 169.55 13.6785 169.304 13.7174C169.058 13.7434 168.819 13.7888 168.586 13.8537L168.275 21.0969H168.741C169.298 21.0969 169.86 21.0255 170.43 20.8827C171.012 20.7399 171.529 20.5193 171.982 20.2207C172.448 19.9222 172.823 19.5392 173.108 19.0719C173.405 18.6046 173.554 18.0465 173.554 17.3974Z" fill="white"/>
<path d="M217.53 22.343C217.53 24.1993 217.472 26.049 217.356 27.8922C217.239 29.7355 217.103 31.5852 216.948 33.4414L206.973 33.9087C207.271 31.6501 207.536 29.3915 207.769 27.1329C208.015 24.8613 208.137 22.5897 208.137 20.3181C208.137 20.1753 208.131 19.9287 208.118 19.5782C208.105 19.2147 208.079 18.8058 208.04 18.3515C208.015 17.8972 207.969 17.4299 207.905 16.9496C207.853 16.4563 207.775 16.0085 207.672 15.6061C207.581 15.1907 207.465 14.8532 207.322 14.5936C207.18 14.334 207.012 14.2042 206.818 14.2042C206.365 14.2042 206.009 14.3795 205.75 14.7299C205.492 15.0674 205.298 15.4763 205.168 15.9566C205.052 16.4369 204.981 16.9301 204.955 17.4364C204.929 17.9296 204.916 18.332 204.916 18.6436C204.916 19.1888 204.929 19.7339 204.955 20.2791C204.981 20.8243 204.994 21.3825 204.994 21.9536C204.994 23.9656 204.942 25.9711 204.838 27.9701C204.748 29.9691 204.631 31.9746 204.489 33.9866L195.29 34.3371C195.588 32.0785 195.846 29.8263 196.066 27.5807C196.299 25.3221 196.416 23.057 196.416 20.7854C196.416 20.6426 196.409 20.383 196.396 20.0065C196.383 19.6301 196.357 19.2082 196.319 18.7409C196.293 18.2736 196.247 17.7869 196.183 17.2806C196.118 16.7744 196.034 16.3136 195.93 15.8982C195.84 15.4698 195.723 15.1193 195.581 14.8468C195.439 14.5742 195.264 14.4379 195.057 14.4379C194.734 14.4379 194.462 14.5677 194.242 14.8273C194.022 15.0739 193.841 15.3984 193.699 15.8008C193.569 16.2032 193.466 16.6511 193.388 17.1443C193.323 17.6246 193.272 18.0984 193.233 18.5657C193.207 19.033 193.188 19.4678 193.175 19.8702C193.175 20.2597 193.168 20.5517 193.155 20.7464L192.728 34.9602H182.947C183.154 32.7664 183.361 30.5662 183.568 28.3595C183.788 26.1528 183.976 23.9526 184.131 21.7589C184.299 19.5522 184.435 17.3455 184.539 15.1388C184.642 12.9321 184.694 10.7254 184.694 8.51873L193.932 8.12931L193.893 10.3879C194.177 10.0245 194.501 9.66102 194.863 9.29756C195.225 8.92112 195.607 8.59012 196.008 8.30455C196.422 8.00599 196.856 7.76585 197.308 7.58413C197.774 7.4024 198.253 7.31153 198.744 7.31153C199.378 7.31153 199.948 7.36346 200.452 7.4673C200.957 7.55816 201.41 7.72042 201.811 7.95407C202.225 8.18772 202.587 8.51224 202.898 8.92762C203.208 9.33001 203.48 9.84275 203.713 10.4658C204.127 10.0115 204.541 9.58962 204.955 9.20021C205.382 8.81079 205.828 8.47979 206.294 8.20719C206.76 7.92162 207.264 7.70095 207.808 7.54518C208.351 7.38942 208.953 7.31153 209.612 7.31153C210.867 7.31153 211.935 7.55816 212.815 8.05143C213.694 8.53171 214.425 9.17425 215.008 9.97904C215.603 10.7838 216.062 11.7055 216.385 12.7439C216.722 13.7823 216.974 14.8597 217.142 15.9761C217.311 17.0924 217.414 18.2022 217.453 19.3056C217.505 20.4089 217.53 21.4214 217.53 22.343Z" fill="white"/>
<path d="M57.5391 85.9401C56.2722 87.5356 54.7089 88.9283 52.8491 90.1182C50.9892 91.3081 48.9946 92.2951 46.8652 93.0794C44.7359 93.8636 42.5526 94.4586 40.3154 94.8642C38.0782 95.2428 35.9488 95.4321 33.9272 95.4321C30.0189 95.4321 26.4205 94.7696 23.1321 93.4445C19.8437 92.1194 17 90.2804 14.6011 87.9277C12.2291 85.5479 10.3693 82.722 9.02156 79.4498C7.67385 76.1776 7 72.6079 7 68.7408C7 65.7931 7.33693 62.9266 8.01078 60.1412C8.68464 57.3558 9.64151 54.7461 10.8814 52.3123C12.1482 49.8784 13.6846 47.6474 15.4906 45.6192C17.2965 43.5909 19.345 41.8467 21.6361 40.3864C23.9272 38.926 26.434 37.8038 29.1563 37.0195C31.9057 36.2082 34.8167 35.8026 37.8895 35.8026C39.0485 35.8026 40.2884 35.8567 41.6092 35.9648C42.9299 36.046 44.2372 36.2082 45.531 36.4516C46.8518 36.668 48.1321 36.979 49.372 37.3846C50.6119 37.7902 51.7439 38.2905 52.7682 38.8855L51.6361 54.381C50.1267 53.8131 48.5633 53.4345 46.9461 53.2452C45.3558 53.0289 43.7925 52.9207 42.2561 52.9207C40.0997 52.9207 38.0782 53.2182 36.1914 53.8131C34.3315 54.381 32.7008 55.2329 31.2992 56.3687C29.9245 57.5045 28.8329 58.9242 28.0243 60.6279C27.2156 62.3316 26.8113 64.3058 26.8113 66.5503C26.8113 67.9566 27 69.3222 27.3774 70.6473C27.7547 71.9454 28.3208 73.1082 29.0755 74.1358C29.8571 75.1364 30.814 75.9477 31.9461 76.5697C33.1051 77.1917 34.4394 77.5027 35.9488 77.5027C36.973 77.5027 38.0243 77.3675 39.1024 77.097C40.2075 76.8266 41.1509 76.3669 41.9326 75.7178L42.0943 72.5538L32.3908 72.3916L32.876 60.2223C36.8922 60.0871 40.9084 59.9789 44.9245 59.8978C48.9407 59.7896 52.9838 59.6544 57.0539 59.4921L57.5391 85.9401Z" fill="white"/>
<path d="M111.636 91.5379L91.5822 94.134L89.1563 84.9665H79.938L77.9164 94.134L57.2965 92.1058L73.3881 38.0742L95.8679 36.9384L111.636 91.5379ZM87.7008 72.5538L84.628 58.4375L81.6361 72.5538H87.7008Z" fill="white"/>
<path d="M183.159 67.5239C183.159 71.391 183.038 75.2446 182.795 79.0847C182.553 82.9248 182.27 86.7784 181.946 90.6455L161.164 91.6191C161.784 86.9136 162.337 82.2081 162.822 77.5027C163.334 72.7702 163.59 68.0377 163.59 63.3052C163.59 63.0077 163.577 62.4939 163.55 61.7637C163.523 61.0065 163.469 60.1547 163.388 59.2082C163.334 58.2617 163.24 57.2881 163.105 56.2876C162.997 55.2599 162.836 54.327 162.62 53.4886C162.431 52.6233 162.189 51.9201 161.892 51.3793C161.596 50.8384 161.245 50.568 160.841 50.568C159.898 50.568 159.156 50.9331 158.617 51.6632C158.078 52.3663 157.674 53.2182 157.404 54.2188C157.162 55.2194 157.013 56.247 156.96 57.3017C156.906 58.3293 156.879 59.1676 156.879 59.8167C156.879 60.9525 156.906 62.0883 156.96 63.2241C157.013 64.3599 157.04 65.5227 157.04 66.7126C157.04 70.9042 156.933 75.0823 156.717 79.2469C156.528 83.4115 156.286 87.5897 155.989 91.7813L136.825 92.5115C137.445 87.806 137.984 83.1141 138.442 78.4357C138.927 73.7302 139.17 69.0112 139.17 64.2787C139.17 63.9813 139.156 63.4404 139.129 62.6562C139.102 61.8719 139.049 60.993 138.968 60.0195C138.914 59.0459 138.819 58.0318 138.685 56.9771C138.55 55.9225 138.375 54.9625 138.159 54.0971C137.97 53.2047 137.728 52.4745 137.431 51.9066C137.135 51.3387 136.771 51.0548 136.34 51.0548C135.666 51.0548 135.1 51.3252 134.642 51.8661C134.183 52.3799 133.806 53.0559 133.509 53.8943C133.24 54.7326 133.024 55.6656 132.863 56.6932C132.728 57.6938 132.62 58.6809 132.539 59.6544C132.485 60.6279 132.445 61.5339 132.418 62.3722C132.418 63.1835 132.404 63.792 132.377 64.1976L131.488 93.8095H111.111C111.542 89.2393 111.973 84.6555 112.404 80.0582C112.863 75.4609 113.253 70.8772 113.577 66.3069C113.927 61.7097 114.21 57.1124 114.426 52.5151C114.642 47.9178 114.749 43.3205 114.749 38.7232L133.995 37.9119L133.914 42.6174C134.507 41.8602 135.181 41.103 135.935 40.3458C136.69 39.5616 137.485 38.872 138.321 38.277C139.183 37.655 140.086 37.1547 141.03 36.7761C142 36.3975 142.997 36.2082 144.022 36.2082C145.342 36.2082 146.528 36.3164 147.58 36.5327C148.631 36.722 149.574 37.0601 150.41 37.5469C151.272 38.0336 152.027 38.7097 152.674 39.5751C153.321 40.4134 153.887 41.4816 154.372 42.7797C155.234 41.8332 156.097 40.9543 156.96 40.143C157.849 39.3317 158.779 38.6421 159.749 38.0742C160.72 37.4792 161.771 37.0195 162.903 36.695C164.035 36.3705 165.288 36.2082 166.663 36.2082C169.278 36.2082 171.501 36.722 173.334 37.7497C175.167 38.7503 176.69 40.0889 177.903 41.7655C179.143 43.4422 180.1 45.3622 180.774 47.5257C181.474 49.6891 182 51.9337 182.35 54.2593C182.701 56.585 182.916 58.8972 182.997 61.1958C183.105 63.4945 183.159 65.6038 183.159 67.5239Z" fill="white"/>
<path d="M232 62.2505C232 64.6032 231.838 66.956 231.515 69.3087C226.906 69.6062 222.323 70.0929 217.768 70.769C213.213 71.418 208.658 72.0671 204.102 72.7161C204.803 74.6632 205.895 76.2181 207.377 77.381C208.887 78.5438 210.679 79.1253 212.755 79.1253C213.833 79.1253 215.005 78.9224 216.272 78.5168C217.566 78.1111 218.846 77.6109 220.113 77.0159C221.38 76.3939 222.593 75.7314 223.752 75.0283C224.911 74.3251 225.908 73.6896 226.744 73.1217L224.803 91.5379C223.752 92.3492 222.606 93.0388 221.367 93.6067C220.154 94.1746 218.887 94.6343 217.566 94.9859C216.245 95.3375 214.911 95.5944 213.563 95.7566C212.216 95.9189 210.895 96 209.601 96C206.933 96 204.493 95.6349 202.283 94.9048C200.073 94.1746 198.065 93.1605 196.259 91.8624C194.48 90.5373 192.916 88.9824 191.569 87.1975C190.221 85.4127 189.102 83.4656 188.213 81.3563C187.323 79.2469 186.65 77.0159 186.191 74.6632C185.733 72.3105 185.504 69.9307 185.504 67.5239C185.504 65.0089 185.733 62.4939 186.191 59.9789C186.65 57.4639 187.337 55.0436 188.253 52.7179C189.197 50.3922 190.369 48.2423 191.771 46.2682C193.199 44.267 194.857 42.5227 196.744 41.0354C198.631 39.548 200.76 38.3852 203.132 37.5469C205.531 36.7085 208.173 36.2894 211.057 36.2894C213.456 36.2894 215.639 36.6274 217.606 37.3035C219.601 37.9525 221.367 38.872 222.903 40.0618C224.466 41.2247 225.814 42.6174 226.946 44.24C228.105 45.8625 229.049 47.6474 229.776 49.5945C230.531 51.5145 231.084 53.5562 231.434 55.7197C231.811 57.856 232 60.033 232 62.2505ZM215.827 60.1412C215.827 59.384 215.747 58.6132 215.585 57.829C215.423 57.0177 215.154 56.2876 214.776 55.6385C214.426 54.9895 213.954 54.4622 213.361 54.0565C212.768 53.6238 212.027 53.4075 211.137 53.4075C210.059 53.4075 209.102 53.705 208.267 54.2999C207.458 54.8678 206.757 55.598 206.164 56.4904C205.571 57.3558 205.086 58.3023 204.709 59.3299C204.332 60.3575 204.049 61.304 203.86 62.1694L215.827 61.0336V60.1412Z" fill="white"/>
<path d="M45.0798 28.6127C45.0798 29.69 44.8792 30.6182 44.4782 31.397C44.09 32.1758 43.566 32.8378 42.9062 33.383C42.2464 33.9282 41.483 34.376 40.6162 34.7265C39.7623 35.064 38.8695 35.3301 37.938 35.5248C37.0065 35.7195 36.0685 35.8493 35.124 35.9142C34.1925 35.9791 33.3191 36.0116 32.504 36.0116C31.7019 36.0116 30.8674 35.9791 30.0005 35.9142C29.1466 35.8623 28.2927 35.7649 27.4388 35.6222C26.5849 35.4794 25.7439 35.2912 24.9159 35.0575C24.0879 34.8109 23.3051 34.5058 22.5677 34.1424L22.5288 9.06391C23.2534 8.76536 24.0232 8.49926 24.8383 8.26561C25.6534 8.01897 26.4814 7.81778 27.3224 7.66201C28.1763 7.49326 29.0237 7.36995 29.8647 7.29206C30.7057 7.2012 31.5208 7.15577 32.31 7.15577C33.2286 7.15577 34.1536 7.21418 35.0852 7.331C36.0296 7.44783 36.9353 7.64254 37.8022 7.91513C38.669 8.18772 39.4776 8.54469 40.228 8.98603C40.9784 9.41439 41.6318 9.94659 42.1881 10.5826C42.7574 11.2187 43.1973 11.9586 43.5078 12.8023C43.8313 13.6461 43.993 14.6196 43.993 15.7229C43.993 16.4499 43.8895 17.1313 43.6825 17.7674C43.4755 18.4034 43.1779 18.9746 42.7898 19.4808C42.4016 19.9871 41.9294 20.4219 41.373 20.7854C40.8167 21.1358 40.1892 21.3955 39.4906 21.5642C40.3315 21.7849 41.0949 22.1094 41.7806 22.5377C42.4792 22.9661 43.0679 23.4853 43.5466 24.0954C44.0383 24.7055 44.4135 25.3935 44.6722 26.1593C44.9439 26.9252 45.0798 27.743 45.0798 28.6127ZM35.221 17.5143C35.221 17.1378 35.1434 16.8198 34.9881 16.5602C34.8329 16.2876 34.6388 16.0669 34.4059 15.8982C34.186 15.7294 33.9402 15.6061 33.6685 15.5282C33.4097 15.4504 33.1768 15.4114 32.9698 15.4114C32.7111 15.4114 32.4588 15.4504 32.2129 15.5282C31.9671 15.6061 31.7278 15.697 31.4949 15.8008L31.3784 20.1234C31.676 20.1234 32.0447 20.0974 32.4846 20.0455C32.9245 19.9936 33.345 19.8832 33.7461 19.7145C34.1601 19.5327 34.5094 19.2731 34.7941 18.9356C35.0787 18.5852 35.221 18.1114 35.221 17.5143ZM32.4652 23.8618C32.09 23.8618 31.7278 23.9007 31.3784 23.9786L31.3008 28.4179C31.4949 28.4569 31.6825 28.4958 31.8636 28.5348C32.0577 28.5607 32.2453 28.5737 32.4264 28.5737C32.6981 28.5737 32.9957 28.5478 33.3191 28.4958C33.6426 28.4309 33.9466 28.3141 34.2313 28.1454C34.5159 27.9636 34.7488 27.7235 34.9299 27.4249C35.124 27.1264 35.221 26.7305 35.221 26.2372C35.221 25.7439 35.124 25.3415 34.9299 25.03C34.7488 24.7185 34.5224 24.4783 34.2507 24.3096C33.979 24.1279 33.6814 24.011 33.358 23.9591C33.0345 23.8942 32.7369 23.8618 32.4652 23.8618Z" stroke="url(#paint0_linear_99_92)" stroke-width="14" mask="url(#path-1-outside-1_99_92)"/>
<path d="M67.3978 19.8118C67.3978 20.9411 67.3202 22.0704 67.165 23.1998C64.9526 23.3425 62.7531 23.5762 60.5666 23.9007C58.3801 24.2122 56.1935 24.5238 54.007 24.8353C54.3434 25.7699 54.8674 26.5163 55.579 27.0745C56.3035 27.6326 57.1639 27.9117 58.1601 27.9117C58.6776 27.9117 59.2404 27.8143 59.8485 27.6196C60.4695 27.4249 61.0841 27.1848 61.6922 26.8992C62.3003 26.6007 62.8825 26.2826 63.4388 25.9451C63.9951 25.6077 64.4739 25.3026 64.8749 25.03L63.9434 33.8698C63.4388 34.2592 62.8889 34.5902 62.2938 34.8628C61.7116 35.1354 61.1035 35.3561 60.4695 35.5248C59.8356 35.6936 59.1951 35.8169 58.5482 35.8948C57.9013 35.9726 57.2674 36.0116 56.6464 36.0116C55.3655 36.0116 54.1946 35.8363 53.1337 35.4859C52.0728 35.1354 51.1089 34.6486 50.2421 34.0256C49.3881 33.3895 48.6377 32.6431 47.9908 31.7864C47.3439 30.9297 46.807 29.9951 46.3801 28.9826C45.9531 27.9701 45.6296 26.8992 45.4097 25.7699C45.1898 24.6406 45.0798 23.4983 45.0798 22.343C45.0798 21.1358 45.1898 19.9287 45.4097 18.7215C45.6296 17.5143 45.9596 16.3525 46.3995 15.2362C46.8523 14.1198 47.4151 13.0879 48.0879 12.1403C48.7736 11.1797 49.5693 10.3425 50.4749 9.62857C51.3806 8.91463 52.4027 8.35647 53.5412 7.95407C54.6927 7.55167 55.9606 7.35048 57.345 7.35048C58.4965 7.35048 59.5445 7.51273 60.4889 7.83725C61.4464 8.14878 62.2938 8.59012 63.0313 9.16127C63.7817 9.71943 64.4286 10.3879 64.972 11.1668C65.5283 11.9456 65.9811 12.8023 66.3305 13.7369C66.6927 14.6585 66.958 15.6386 67.1261 16.677C67.3073 17.7025 67.3978 18.7474 67.3978 19.8118ZM59.635 18.7993C59.635 18.4359 59.5962 18.0659 59.5186 17.6895C59.441 17.3001 59.3116 16.9496 59.1305 16.6381C58.9623 16.3265 58.7358 16.0734 58.4512 15.8787C58.1666 15.671 57.8108 15.5672 57.3838 15.5672C56.8663 15.5672 56.407 15.71 56.0059 15.9955C55.6178 16.2681 55.2814 16.6186 54.9968 17.047C54.7121 17.4623 54.4792 17.9167 54.2981 18.4099C54.117 18.9032 53.9811 19.3575 53.8906 19.7729L59.635 19.2277V18.7993Z" stroke="url(#paint1_linear_99_92)" stroke-width="14" mask="url(#path-1-outside-1_99_92)"/>
<path d="M91.4237 16.7744C91.4237 17.7869 91.3332 18.7085 91.152 19.5392C90.9838 20.357 90.7121 21.1099 90.3369 21.7979C89.9617 22.4858 89.4765 23.1219 88.8814 23.706C88.2863 24.2901 87.5682 24.8483 86.7272 25.3805L91.3461 33.6361L82.6129 35.3496L79.6243 27.055L77.2178 27.1329L76.8685 35.2327H68.5234C68.5881 32.2732 68.6464 29.3266 68.6981 26.393C68.7628 23.4594 68.834 20.5128 68.9116 17.5532C68.9375 16.0604 68.9633 14.5807 68.9892 13.1138C69.0151 11.647 69.0668 10.1673 69.1445 8.67449C70.0501 8.337 70.9429 8.05792 71.8226 7.83725C72.7024 7.61658 73.5822 7.44783 74.462 7.331C75.3547 7.2012 76.2539 7.11683 77.1596 7.07788C78.0782 7.02596 79.0162 7 79.9736 7C81.4485 7 82.8717 7.20769 84.2431 7.62307C85.6275 8.02547 86.8501 8.63555 87.911 9.45333C88.972 10.2711 89.8194 11.2901 90.4534 12.5103C91.1003 13.7304 91.4237 15.1518 91.4237 16.7744ZM82.7294 17.3974C82.7294 16.8523 82.6518 16.3525 82.4965 15.8982C82.3542 15.4439 82.1342 15.0544 81.8367 14.7299C81.552 14.3924 81.1898 14.1328 80.7499 13.9511C80.3229 13.7564 79.8183 13.659 79.2361 13.659C78.9774 13.659 78.7251 13.6785 78.4792 13.7174C78.2334 13.7434 77.9941 13.7888 77.7612 13.8537L77.4507 21.0969H77.9164C78.4728 21.0969 79.0356 21.0255 79.6049 20.8827C80.1871 20.7399 80.7046 20.5193 81.1574 20.2207C81.6232 19.9222 81.9984 19.5392 82.283 19.0719C82.5806 18.6046 82.7294 18.0465 82.7294 17.3974Z" stroke="url(#paint2_linear_99_92)" stroke-width="14" mask="url(#path-1-outside-1_99_92)"/>
<path d="M117.254 33.8698L107.629 35.1159L106.464 30.7155H102.039L101.069 35.1159L91.1714 34.1424L98.8954 8.20719L109.686 7.66201L117.254 33.8698ZM105.765 24.7574L104.291 17.9816L102.854 24.7574H105.765Z" stroke="url(#paint3_linear_99_92)" stroke-width="14" mask="url(#path-1-outside-1_99_92)"/>
<path d="M136.021 7.85672C135.943 9.07689 135.872 10.2841 135.808 11.4783C135.743 12.6725 135.659 13.8797 135.555 15.0999L127.327 15.5282V17.9816H134.468L134.08 24.0175L127.288 24.2122L127.327 34.9602L117.507 35.1549L118.128 7.85672H136.021Z" stroke="url(#paint4_linear_99_92)" stroke-width="14" mask="url(#path-1-outside-1_99_92)"/>
<path d="M159.096 33.8698L149.47 35.1159L148.306 30.7155H143.881L142.911 35.1159L133.013 34.1424L140.737 8.20719L151.527 7.66201L159.096 33.8698ZM147.607 24.7574L146.132 17.9816L144.696 24.7574H147.607Z" stroke="url(#paint5_linear_99_92)" stroke-width="14" mask="url(#path-1-outside-1_99_92)"/>
<path d="M182.249 16.7744C182.249 17.7869 182.158 18.7085 181.977 19.5392C181.809 20.357 181.537 21.1099 181.162 21.7979C180.787 22.4858 180.301 23.1219 179.706 23.706C179.111 24.2901 178.393 24.8483 177.552 25.3805L182.171 33.6361L173.438 35.3496L170.449 27.055L168.043 27.1329L167.693 35.2327H159.348C159.413 32.2732 159.471 29.3266 159.523 26.393C159.588 23.4594 159.659 20.5128 159.736 17.5532C159.762 16.0604 159.788 14.5807 159.814 13.1138C159.84 11.647 159.892 10.1673 159.969 8.67449C160.875 8.337 161.768 8.05792 162.647 7.83725C163.527 7.61658 164.407 7.44783 165.287 7.331C166.18 7.2012 167.079 7.11683 167.984 7.07788C168.903 7.02596 169.841 7 170.798 7C172.273 7 173.696 7.20769 175.068 7.62307C176.452 8.02547 177.675 8.63555 178.736 9.45333C179.797 10.2711 180.644 11.2901 181.278 12.5103C181.925 13.7304 182.249 15.1518 182.249 16.7744ZM173.554 17.3974C173.554 16.8523 173.477 16.3525 173.321 15.8982C173.179 15.4439 172.959 15.0544 172.661 14.7299C172.377 14.3924 172.015 14.1328 171.575 13.9511C171.148 13.7564 170.643 13.659 170.061 13.659C169.802 13.659 169.55 13.6785 169.304 13.7174C169.058 13.7434 168.819 13.7888 168.586 13.8537L168.275 21.0969H168.741C169.298 21.0969 169.86 21.0255 170.43 20.8827C171.012 20.7399 171.529 20.5193 171.982 20.2207C172.448 19.9222 172.823 19.5392 173.108 19.0719C173.405 18.6046 173.554 18.0465 173.554 17.3974Z" stroke="url(#paint6_linear_99_92)" stroke-width="14" mask="url(#path-1-outside-1_99_92)"/>
<path d="M217.53 22.343C217.53 24.1993 217.472 26.049 217.356 27.8922C217.239 29.7355 217.103 31.5852 216.948 33.4414L206.973 33.9087C207.271 31.6501 207.536 29.3915 207.769 27.1329C208.015 24.8613 208.137 22.5897 208.137 20.3181C208.137 20.1753 208.131 19.9287 208.118 19.5782C208.105 19.2147 208.079 18.8058 208.04 18.3515C208.015 17.8972 207.969 17.4299 207.905 16.9496C207.853 16.4563 207.775 16.0085 207.672 15.6061C207.581 15.1907 207.465 14.8532 207.322 14.5936C207.18 14.334 207.012 14.2042 206.818 14.2042C206.365 14.2042 206.009 14.3795 205.75 14.7299C205.492 15.0674 205.298 15.4763 205.168 15.9566C205.052 16.4369 204.981 16.9301 204.955 17.4364C204.929 17.9296 204.916 18.332 204.916 18.6436C204.916 19.1888 204.929 19.7339 204.955 20.2791C204.981 20.8243 204.994 21.3825 204.994 21.9536C204.994 23.9656 204.942 25.9711 204.838 27.9701C204.748 29.9691 204.631 31.9746 204.489 33.9866L195.29 34.3371C195.588 32.0785 195.846 29.8263 196.066 27.5807C196.299 25.3221 196.416 23.057 196.416 20.7854C196.416 20.6426 196.409 20.383 196.396 20.0065C196.383 19.6301 196.357 19.2082 196.319 18.7409C196.293 18.2736 196.247 17.7869 196.183 17.2806C196.118 16.7744 196.034 16.3136 195.93 15.8982C195.84 15.4698 195.723 15.1193 195.581 14.8468C195.439 14.5742 195.264 14.4379 195.057 14.4379C194.734 14.4379 194.462 14.5677 194.242 14.8273C194.022 15.0739 193.841 15.3984 193.699 15.8008C193.569 16.2032 193.466 16.6511 193.388 17.1443C193.323 17.6246 193.272 18.0984 193.233 18.5657C193.207 19.033 193.188 19.4678 193.175 19.8702C193.175 20.2597 193.168 20.5517 193.155 20.7464L192.728 34.9602H182.947C183.154 32.7664 183.361 30.5662 183.568 28.3595C183.788 26.1528 183.976 23.9526 184.131 21.7589C184.299 19.5522 184.435 17.3455 184.539 15.1388C184.642 12.9321 184.694 10.7254 184.694 8.51873L193.932 8.12931L193.893 10.3879C194.177 10.0245 194.501 9.66102 194.863 9.29756C195.225 8.92112 195.607 8.59012 196.008 8.30455C196.422 8.00599 196.856 7.76585 197.308 7.58413C197.774 7.4024 198.253 7.31153 198.744 7.31153C199.378 7.31153 199.948 7.36346 200.452 7.4673C200.957 7.55816 201.41 7.72042 201.811 7.95407C202.225 8.18772 202.587 8.51224 202.898 8.92762C203.208 9.33001 203.48 9.84275 203.713 10.4658C204.127 10.0115 204.541 9.58962 204.955 9.20021C205.382 8.81079 205.828 8.47979 206.294 8.20719C206.76 7.92162 207.264 7.70095 207.808 7.54518C208.351 7.38942 208.953 7.31153 209.612 7.31153C210.867 7.31153 211.935 7.55816 212.815 8.05143C213.694 8.53171 214.425 9.17425 215.008 9.97904C215.603 10.7838 216.062 11.7055 216.385 12.7439C216.722 13.7823 216.974 14.8597 217.142 15.9761C217.311 17.0924 217.414 18.2022 217.453 19.3056C217.505 20.4089 217.53 21.4214 217.53 22.343Z" stroke="url(#paint7_linear_99_92)" stroke-width="14" mask="url(#path-1-outside-1_99_92)"/>
<path d="M57.5391 85.9401C56.2722 87.5356 54.7089 88.9283 52.8491 90.1182C50.9892 91.3081 48.9946 92.2951 46.8652 93.0794C44.7359 93.8636 42.5526 94.4586 40.3154 94.8642C38.0782 95.2428 35.9488 95.4321 33.9272 95.4321C30.0189 95.4321 26.4205 94.7696 23.1321 93.4445C19.8437 92.1194 17 90.2804 14.6011 87.9277C12.2291 85.5479 10.3693 82.722 9.02156 79.4498C7.67385 76.1776 7 72.6079 7 68.7408C7 65.7931 7.33693 62.9266 8.01078 60.1412C8.68464 57.3558 9.64151 54.7461 10.8814 52.3123C12.1482 49.8784 13.6846 47.6474 15.4906 45.6192C17.2965 43.5909 19.345 41.8467 21.6361 40.3864C23.9272 38.926 26.434 37.8038 29.1563 37.0195C31.9057 36.2082 34.8167 35.8026 37.8895 35.8026C39.0485 35.8026 40.2884 35.8567 41.6092 35.9648C42.9299 36.046 44.2372 36.2082 45.531 36.4516C46.8518 36.668 48.1321 36.979 49.372 37.3846C50.6119 37.7902 51.7439 38.2905 52.7682 38.8855L51.6361 54.381C50.1267 53.8131 48.5633 53.4345 46.9461 53.2452C45.3558 53.0289 43.7925 52.9207 42.2561 52.9207C40.0997 52.9207 38.0782 53.2182 36.1914 53.8131C34.3315 54.381 32.7008 55.2329 31.2992 56.3687C29.9245 57.5045 28.8329 58.9242 28.0243 60.6279C27.2156 62.3316 26.8113 64.3058 26.8113 66.5503C26.8113 67.9566 27 69.3222 27.3774 70.6473C27.7547 71.9454 28.3208 73.1082 29.0755 74.1358C29.8571 75.1364 30.814 75.9477 31.9461 76.5697C33.1051 77.1917 34.4394 77.5027 35.9488 77.5027C36.973 77.5027 38.0243 77.3675 39.1024 77.097C40.2075 76.8266 41.1509 76.3669 41.9326 75.7178L42.0943 72.5538L32.3908 72.3916L32.876 60.2223C36.8922 60.0871 40.9084 59.9789 44.9245 59.8978C48.9407 59.7896 52.9838 59.6544 57.0539 59.4921L57.5391 85.9401Z" stroke="url(#paint8_linear_99_92)" stroke-width="14" mask="url(#path-1-outside-1_99_92)"/>
<path d="M111.636 91.5379L91.5822 94.134L89.1563 84.9665H79.938L77.9164 94.134L57.2965 92.1058L73.3881 38.0742L95.8679 36.9384L111.636 91.5379ZM87.7008 72.5538L84.628 58.4375L81.6361 72.5538H87.7008Z" stroke="url(#paint9_linear_99_92)" stroke-width="14" mask="url(#path-1-outside-1_99_92)"/>
<path d="M183.159 67.5239C183.159 71.391 183.038 75.2446 182.795 79.0847C182.553 82.9248 182.27 86.7784 181.946 90.6455L161.164 91.6191C161.784 86.9136 162.337 82.2081 162.822 77.5027C163.334 72.7702 163.59 68.0377 163.59 63.3052C163.59 63.0077 163.577 62.4939 163.55 61.7637C163.523 61.0065 163.469 60.1547 163.388 59.2082C163.334 58.2617 163.24 57.2881 163.105 56.2876C162.997 55.2599 162.836 54.327 162.62 53.4886C162.431 52.6233 162.189 51.9201 161.892 51.3793C161.596 50.8384 161.245 50.568 160.841 50.568C159.898 50.568 159.156 50.9331 158.617 51.6632C158.078 52.3663 157.674 53.2182 157.404 54.2188C157.162 55.2194 157.013 56.247 156.96 57.3017C156.906 58.3293 156.879 59.1676 156.879 59.8167C156.879 60.9525 156.906 62.0883 156.96 63.2241C157.013 64.3599 157.04 65.5227 157.04 66.7126C157.04 70.9042 156.933 75.0823 156.717 79.2469C156.528 83.4115 156.286 87.5897 155.989 91.7813L136.825 92.5115C137.445 87.806 137.984 83.1141 138.442 78.4357C138.927 73.7302 139.17 69.0112 139.17 64.2787C139.17 63.9813 139.156 63.4404 139.129 62.6562C139.102 61.8719 139.049 60.993 138.968 60.0195C138.914 59.0459 138.819 58.0318 138.685 56.9771C138.55 55.9225 138.375 54.9625 138.159 54.0971C137.97 53.2047 137.728 52.4745 137.431 51.9066C137.135 51.3387 136.771 51.0548 136.34 51.0548C135.666 51.0548 135.1 51.3252 134.642 51.8661C134.183 52.3799 133.806 53.0559 133.509 53.8943C133.24 54.7326 133.024 55.6656 132.863 56.6932C132.728 57.6938 132.62 58.6809 132.539 59.6544C132.485 60.6279 132.445 61.5339 132.418 62.3722C132.418 63.1835 132.404 63.792 132.377 64.1976L131.488 93.8095H111.111C111.542 89.2393 111.973 84.6555 112.404 80.0582C112.863 75.4609 113.253 70.8772 113.577 66.3069C113.927 61.7097 114.21 57.1124 114.426 52.5151C114.642 47.9178 114.749 43.3205 114.749 38.7232L133.995 37.9119L133.914 42.6174C134.507 41.8602 135.181 41.103 135.935 40.3458C136.69 39.5616 137.485 38.872 138.321 38.277C139.183 37.655 140.086 37.1547 141.03 36.7761C142 36.3975 142.997 36.2082 144.022 36.2082C145.342 36.2082 146.528 36.3164 147.58 36.5327C148.631 36.722 149.574 37.0601 150.41 37.5469C151.272 38.0336 152.027 38.7097 152.674 39.5751C153.321 40.4134 153.887 41.4816 154.372 42.7797C155.234 41.8332 156.097 40.9543 156.96 40.143C157.849 39.3317 158.779 38.6421 159.749 38.0742C160.72 37.4792 161.771 37.0195 162.903 36.695C164.035 36.3705 165.288 36.2082 166.663 36.2082C169.278 36.2082 171.501 36.722 173.334 37.7497C175.167 38.7503 176.69 40.0889 177.903 41.7655C179.143 43.4422 180.1 45.3622 180.774 47.5257C181.474 49.6891 182 51.9337 182.35 54.2593C182.701 56.585 182.916 58.8972 182.997 61.1958C183.105 63.4945 183.159 65.6038 183.159 67.5239Z" stroke="url(#paint10_linear_99_92)" stroke-width="14" mask="url(#path-1-outside-1_99_92)"/>
<path d="M232 62.2505C232 64.6032 231.838 66.956 231.515 69.3087C226.906 69.6062 222.323 70.0929 217.768 70.769C213.213 71.418 208.658 72.0671 204.102 72.7161C204.803 74.6632 205.895 76.2181 207.377 77.381C208.887 78.5438 210.679 79.1253 212.755 79.1253C213.833 79.1253 215.005 78.9224 216.272 78.5168C217.566 78.1111 218.846 77.6109 220.113 77.0159C221.38 76.3939 222.593 75.7314 223.752 75.0283C224.911 74.3251 225.908 73.6896 226.744 73.1217L224.803 91.5379C223.752 92.3492 222.606 93.0388 221.367 93.6067C220.154 94.1746 218.887 94.6343 217.566 94.9859C216.245 95.3375 214.911 95.5944 213.563 95.7566C212.216 95.9189 210.895 96 209.601 96C206.933 96 204.493 95.6349 202.283 94.9048C200.073 94.1746 198.065 93.1605 196.259 91.8624C194.48 90.5373 192.916 88.9824 191.569 87.1975C190.221 85.4127 189.102 83.4656 188.213 81.3563C187.323 79.2469 186.65 77.0159 186.191 74.6632C185.733 72.3105 185.504 69.9307 185.504 67.5239C185.504 65.0089 185.733 62.4939 186.191 59.9789C186.65 57.4639 187.337 55.0436 188.253 52.7179C189.197 50.3922 190.369 48.2423 191.771 46.2682C193.199 44.267 194.857 42.5227 196.744 41.0354C198.631 39.548 200.76 38.3852 203.132 37.5469C205.531 36.7085 208.173 36.2894 211.057 36.2894C213.456 36.2894 215.639 36.6274 217.606 37.3035C219.601 37.9525 221.367 38.872 222.903 40.0618C224.466 41.2247 225.814 42.6174 226.946 44.24C228.105 45.8625 229.049 47.6474 229.776 49.5945C230.531 51.5145 231.084 53.5562 231.434 55.7197C231.811 57.856 232 60.033 232 62.2505ZM215.827 60.1412C215.827 59.384 215.747 58.6132 215.585 57.829C215.423 57.0177 215.154 56.2876 214.776 55.6385C214.426 54.9895 213.954 54.4622 213.361 54.0565C212.768 53.6238 212.027 53.4075 211.137 53.4075C210.059 53.4075 209.102 53.705 208.267 54.2999C207.458 54.8678 206.757 55.598 206.164 56.4904C205.571 57.3558 205.086 58.3023 204.709 59.3299C204.332 60.3575 204.049 61.304 203.86 62.1694L215.827 61.0336V60.1412Z" stroke="url(#paint11_linear_99_92)" stroke-width="14" mask="url(#path-1-outside-1_99_92)"/>
<defs>
<linearGradient id="paint0_linear_99_92" x1="119.5" y1="7" x2="119.5" y2="96" gradientUnits="userSpaceOnUse">
<stop stop-color="#5C8E16"/>
<stop offset="1" stop-color="#9D4500"/>
</linearGradient>
<linearGradient id="paint1_linear_99_92" x1="119.5" y1="7" x2="119.5" y2="96" gradientUnits="userSpaceOnUse">
<stop stop-color="#5C8E16"/>
<stop offset="1" stop-color="#9D4500"/>
</linearGradient>
<linearGradient id="paint2_linear_99_92" x1="119.5" y1="7" x2="119.5" y2="96" gradientUnits="userSpaceOnUse">
<stop stop-color="#5C8E16"/>
<stop offset="1" stop-color="#9D4500"/>
</linearGradient>
<linearGradient id="paint3_linear_99_92" x1="119.5" y1="7" x2="119.5" y2="96" gradientUnits="userSpaceOnUse">
<stop stop-color="#5C8E16"/>
<stop offset="1" stop-color="#9D4500"/>
</linearGradient>
<linearGradient id="paint4_linear_99_92" x1="119.5" y1="7" x2="119.5" y2="96" gradientUnits="userSpaceOnUse">
<stop stop-color="#5C8E16"/>
<stop offset="1" stop-color="#9D4500"/>
</linearGradient>
<linearGradient id="paint5_linear_99_92" x1="119.5" y1="7" x2="119.5" y2="96" gradientUnits="userSpaceOnUse">
<stop stop-color="#5C8E16"/>
<stop offset="1" stop-color="#9D4500"/>
</linearGradient>
<linearGradient id="paint6_linear_99_92" x1="119.5" y1="7" x2="119.5" y2="96" gradientUnits="userSpaceOnUse">
<stop stop-color="#5C8E16"/>
<stop offset="1" stop-color="#9D4500"/>
</linearGradient>
<linearGradient id="paint7_linear_99_92" x1="119.5" y1="7" x2="119.5" y2="96" gradientUnits="userSpaceOnUse">
<stop stop-color="#5C8E16"/>
<stop offset="1" stop-color="#9D4500"/>
</linearGradient>
<linearGradient id="paint8_linear_99_92" x1="119.5" y1="7" x2="119.5" y2="96" gradientUnits="userSpaceOnUse">
<stop stop-color="#5C8E16"/>
<stop offset="1" stop-color="#9D4500"/>
</linearGradient>
<linearGradient id="paint9_linear_99_92" x1="119.5" y1="7" x2="119.5" y2="96" gradientUnits="userSpaceOnUse">
<stop stop-color="#5C8E16"/>
<stop offset="1" stop-color="#9D4500"/>
</linearGradient>
<linearGradient id="paint10_linear_99_92" x1="119.5" y1="7" x2="119.5" y2="96" gradientUnits="userSpaceOnUse">
<stop stop-color="#5C8E16"/>
<stop offset="1" stop-color="#9D4500"/>
</linearGradient>
<linearGradient id="paint11_linear_99_92" x1="119.5" y1="7" x2="119.5" y2="96" gradientUnits="userSpaceOnUse">
<stop stop-color="#5C8E16"/>
<stop offset="1" stop-color="#9D4500"/>
</linearGradient>
</defs>
</svg>
